<svg width="122" height="174" viewBox="0 0 122 174" fill="none" xmlns="http://www.w3.org/2000/svg">
<rect x="78" y="144" width="20" height="12" fill="#0D0D0D"/>
<rect x="98" y="132" width="12" height="12" fill="#0D0D0D"/>
<rect x="110" y="100" width="12" height="32" fill="#0D0D0D"/>
<rect x="52" y="24" width="39" height="57" fill="#0D0D0D"/>
<rect x="52" y="35" width="28" height="57" fill="#0D0D0D"/>
<rect x="76" y="35" width="28" height="12" fill="#0D0D0D"/>
<rect x="68" y="12" width="23" height="15" fill="#0D0D0D"/>
<rect x="79" width="12" height="27" fill="#0D0D0D"/>
<rect x="76" y="58" width="28" height="12" fill="#0D0D0D"/>
<rect x="52" y="89" width="14" height="85" fill="#0D0D0D"/>
<rect x="62" y="102" width="14" height="72" fill="#0D0D0D"/>
<rect x="74" y="113" width="14" height="61" fill="#0D0D0D"/>
<rect x="84" y="164" width="14" height="10" fill="#0D0D0D"/>
<rect width="42" height="57" transform="matrix(-1 0 0 1 55 24)" fill="#0D0D0D"/>
<rect width="31" height="57" transform="matrix(-1 0 0 1 55 35)" fill="#0D0D0D"/>
<rect width="28" height="12" transform="matrix(-1 0 0 1 28 35)" fill="#0D0D0D"/>
<rect width="23" height="15" transform="matrix(-1 0 0 1 36 12)" fill="#0D0D0D"/>
<rect width="12" height="27" transform="matrix(-1 0 0 1 25 0)" fill="#0D0D0D"/>
<rect width="28" height="12" transform="matrix(-1 0 0 1 28 58)" fill="#0D0D0D"/>
<rect width="17" height="85" transform="matrix(-1 0 0 1 55 89)" fill="#0D0D0D"/>
<rect width="14" height="72" transform="matrix(-1 0 0 1 42 102)" fill="#0D0D0D"/>
<rect width="14" height="61" transform="matrix(-1 0 0 1 30 113)" fill="#0D0D0D"/>
<rect width="14" height="10" transform="matrix(-1 0 0 1 20 164)" fill="#0D0D0D"/>
<rect x="48" y="61" width="7" height="4" fill="#D9D9D9"/>
<rect x="50" y="62" width="3" height="10" fill="#D9D9D9"/>
<rect x="49" y="71" width="1" height="2" fill="#D9D9D9"/>
<rect width="1" height="2" transform="matrix(-1 0 0 1 54 71)" fill="#D9D9D9"/>
<rect x="48" y="72" width="1" height="2" fill="#D9D9D9"/>
<rect width="1" height="2" transform="matrix(-1 0 0 1 55 72)" fill="#D9D9D9"/>
<rect x="47" y="73" width="1" height="1" fill="#D9D9D9"/>
<rect width="1" height="1" transform="matrix(-1 0 0 1 56 73)" fill="#D9D9D9"/>
<rect x="45" y="74" width="2" height="1" fill="#D9D9D9"/>
<rect width="2" height="1" transform="matrix(-1 0 0 1 58 74)" fill="#D9D9D9"/>
<rect x="43" y="73" width="2" height="1" fill="#D9D9D9"/>
<rect width="2" height="1" transform="matrix(-1 0 0 1 60 73)" fill="#D9D9D9"/>
<rect x="41" y="72" width="2" height="1" fill="#D9D9D9"/>
<rect width="2" height="1" transform="matrix(-1 0 0 1 62 72)" fill="#D9D9D9"/>
<rect x="61" y="52" width="11" height="4" fill="#D5D5D5"/>
<rect x="31" y="52" width="11" height="4" fill="#D5D5D5"/>
</svg>
